<svg width="32" height="32" viewBox="0 0 32 32" fill="none" xmlns="http://www.w3.org/2000/svg">
<path fill-rule="evenodd" clip-rule="evenodd" d="M16 2C9.925 2 5 6.925 5 13C5 18.075 8.325 22.425 13 24.25V28.5C13 29.325 13.675 30 14.5 30H17.5C18.325 30 19 29.325 19 28.5V24.25C23.675 22.425 27 18.075 27 13C27 6.925 22.075 2 16 2ZM16 4C20.975 4 25 7.925 25 13C25 16.925 22.675 20.325 19 21.75V26.5H13V21.75C9.325 20.325 7 16.925 7 13C7 7.925 11.025 4 16 4ZM16 6C13.75 6 11.825 7.575 11.25 9.75C11.175 10.075 11.25 10.425 11.425 10.675L12.5 11.75C12.75 12 13.125 12.075 13.425 11.925C13.725 11.775 13.925 11.475 13.925 11.125V9.5C13.925 9.225 14.15 9 14.425 9H15.575C15.85 9 16.075 9.225 16.075 9.5V11.125C16.075 11.475 16.275 11.775 16.575 11.925C16.875 12.075 17.25 12 17.5 11.75L18.575 10.675C18.75 10.425 18.825 10.075 18.75 9.75C18.175 7.575 16.25 6 14 6ZM16 13C14.35 13 13 14.35 13 16C13 17.65 14.35 19 16 19C17.65 19 19 17.65 19 16C19 14.35 17.65 13 16 13ZM16 15C16.55 15 17 15.45 17 16C17 16.55 16.55 17 16 17C15.45 17 15 16.55 15 16C15 15.45 15.45 15 16 15Z" fill="#2563eb"/>
</svg>