<svg width="200" height="400" viewBox="0 0 200 400" fill="none" xmlns="http://www.w3.org/2000/svg">
<path fill-rule="evenodd" clip-rule="evenodd" d="M100 0C115 0 125 10 125 25C125 40 115 50 100 50C85 50 75 40 75 25C75 10 85 0 100 0ZM130 50C145 50 155 60 155 75C155 90 145 100 130 100C115 100 105 90 105 75C105 60 115 50 130 50ZM70 50C85 50 95 60 95 75C95 90 85 100 70 100C55 100 45 90 45 75C45 60 55 50 70 50ZM100 50C110 50 115 55 115 65V100H85V65C85 55 90 50 100 50ZM100 100C110 100 115 105 115 115V150H85V115C85 105 90 100 100 100ZM100 150C110 150 115 155 115 165V200H85V165C85 155 90 150 100 150ZM100 200C110 200 115 205 115 215V250H85V215C85 205 90 200 100 200ZM100 250C110 250 115 255 115 265V300H85V265C85 255 90 250 100 250ZM100 300C110 300 115 305 115 315V350H85V315C85 305 90 300 100 300ZM100 350C110 350 115 355 115 365V400H85V365C85 355 90 350 100 350Z" fill="#db2777"/>
</svg>