<svg width="32" height="32" viewBox="0 0 32 32" fill="none" xmlns="http://www.w3.org/2000/svg">
<path fill-rule="evenodd" clip-rule="evenodd" d="M16 4C11.995 4 9 7.005 9 11C9 16.25 16 24 16 24C16 24 23 16.25 23 11C23 7.005 20.005 4 16 4ZM16 21.5C13.5 18.75 11 15.5 11 11C11 8.125 13.125 6 16 6C18.875 6 21 8.125 21 11C21 15.5 18.5 18.75 16 21.5Z" fill="#2563eb"/>
<path d="M16 10.5C15.1716 10.5 14.5 11.1716 14.5 12C14.5 12.8284 15.1716 13.5 16 13.5C16.8284 13.5 17.5 12.8284 17.5 12C17.5 11.1716 16.8284 10.5 16 10.5Z" fill="#2563eb"/>
<path d="M14 15C14 14.4477 14.4477 14 15 14H17C17.5523 14 18 14.4477 18 15V17C18 17.5523 17.5523 18 17 18H15C14.4477 18 14 17.5523 14 17V15Z" fill="#2563eb"/>
</svg>