<svg width="200" height="400" viewBox="0 0 200 400" fill="none" xmlns="http://www.w3.org/2000/svg">
<path d="M100 0C85 0 70 15 70 30V50H60C45 50 35 60 35 75V120C35 135 45 145 60 145H70V180C70 195 80 205 90 205H110C120 205 130 195 130 180V145H140C155 145 165 135 165 120V75C165 60 155 50 140 50H130V30C130 15 115 0 100 0Z" fill="#2563EB"/>
<path d="M90 205H110C120 205 130 215 130 230V280H140C155 280 165 290 165 305V350C165 365 155 375 140 375H130V390C130 395 125 400 120 400H80C75 400 70 395 70 390V375H60C45 375 35 365 35 350V305C35 290 45 280 60 280H70V230C70 215 80 205 90 205Z" fill="#2563EB"/>
</svg>