<svg width="32" height="32" viewBox="0 0 32 32" fill="none" xmlns="http://www.w3.org/2000/svg">
<path d="M16 2C11.5817 2 8 5.58172 8 10V14C8 18.4183 11.5817 22 16 22C20.4183 22 24 18.4183 24 14V10C24 5.58172 20.4183 2 16 2Z" stroke="#2563eb" stroke-width="2" stroke-linecap="round" stroke-linejoin="round"/>
<path d="M16 22V28C16 29.1046 15.1046 30 14 30H10C8.89543 30 8 29.1046 8 28V22" stroke="#2563eb" stroke-width="2" stroke-linecap="round" stroke-linejoin="round"/>
<path d="M16 22V28C16 29.1046 16.8954 30 18 30H22C23.1046 30 24 29.1046 24 28V22" stroke="#2563eb" stroke-width="2" stroke-linecap="round" stroke-linejoin="round"/>
<path d="M16 10V22" stroke="#2563eb" stroke-width="2" stroke-linecap="round" stroke-linejoin="round"/>
<path d="M12 10H20" stroke="#2563eb" stroke-width="2" stroke-linecap="round" stroke-linejoin="round"/>
</svg>